PathFileType	4	(X/Y/Z)	D:/2025/Ayumi_22_01_2025/22-01-2025/static_00_hjc.trc	
DataRate	CameraRate	NumFrames	NumMarkers	Units	OrigDataRate	OrigDataStartFrame	OrigNumFrames	
200.00	200.00	5	66	mm	200.00	52	352	
Frame#	Time	FHD			LBHD			RBHD			LBAR			RASI			RSACR			LSACR			LASI			USACR			C7			CLAV			T10			RSHO			LSHO			LTHI1			LTHI3			LTHI2			LLFC			LTIB1			LTIB2			LTIB3			LMMAL			LLMAL			LHEE			LMT1			LMT5			LMT3			RTHI1			RTHI2			RTHI3			RLFC			RMFC			RTIB1			RTIB3			RTIB2			RLMAL			RMMAL			RHEE			RMT5			RMT1			RMT3			LMEP			LLEP			LDUPA			LMUPA			LUUPA			LUL			LRAD			LRFIN			RUL			RRAD			RUFIN			RMEP			RLEP			RMUPA			RDUPA			RUUPA			LMFC			RBAR			*59			LAJC			RAJC			LKJC			RKJC			LHJC			RHJC			
		X1	Y1	Z1	X2	Y2	Z2	X3	Y3	Z3	X4	Y4	Z4	X5	Y5	Z5	X6	Y6	Z6	X7	Y7	Z7	X8	Y8	Z8	X9	Y9	Z9	X10	Y10	Z10	X11	Y11	Z11	X12	Y12	Z12	X13	Y13	Z13	X14	Y14	Z14	X15	Y15	Z15	X16	Y16	Z16	X17	Y17	Z17	X18	Y18	Z18	X19	Y19	Z19	X20	Y20	Z20	X21	Y21	Z21	X22	Y22	Z22	X23	Y23	Z23	X24	Y24	Z24	X25	Y25	Z25	X26	Y26	Z26	X27	Y27	Z27	X28	Y28	Z28	X29	Y29	Z29	X30	Y30	Z30	X31	Y31	Z31	X32	Y32	Z32	X33	Y33	Z33	X34	Y34	Z34	X35	Y35	Z35	X36	Y36	Z36	X37	Y37	Z37	X38	Y38	Z38	X39	Y39	Z39	X40	Y40	Z40	X41	Y41	Z41	X42	Y42	Z42	X43	Y43	Z43	X44	Y44	Z44	X45	Y45	Z45	X46	Y46	Z46	X47	Y47	Z47	X48	Y48	Z48	X49	Y49	Z49	X50	Y50	Z50	X51	Y51	Z51	X52	Y52	Z52	X53	Y53	Z53	X54	Y54	Z54	X55	Y55	Z55	X56	Y56	Z56	X57	Y57	Z57	X58	Y58	Z58	X59	Y59	Z59	X60	Y60	Z60	X61	Y61	Z61	X62	Y62	Z62	X63	Y63	Z63	X64	Y64	Z64	X65	Y65	Z65	X66	Y66	Z66	

45	0.220	109.80812	968.57776	1612.28979	128.03204	908.06982	1595.30042	146.04262	1039.69568	1583.98401	1041.03601	2031.58020	20.03609	162.78822	1103.15759	927.27460	322.91046	1016.01422	958.97150	319.76572	942.00281	960.76465	149.21553	866.17334	912.41229	314.64218	979.79053	971.06427	297.99988	964.59723	1401.29993	163.27159	981.51996	1329.60437	320.24905	974.15143	1117.63477	237.03453	1113.63818	1406.24756	216.74342	831.43280	1398.72534	237.33728	807.93146	606.56488	261.82523	819.16132	546.09009	211.16048	818.33191	545.88507	229.84023	841.08136	449.40390	256.57764	819.68225	233.60811	306.83170	815.63232	232.47551	280.00397	825.84711	173.51451	284.29846	914.70593	71.81521	297.86359	843.44373	69.63114	340.97931	881.68262	33.98631	143.86234	873.68036	39.18220	169.42831	796.98914	26.84855	144.84500	837.74048	37.22965	257.78107	1156.95251	608.02423	229.94449	1149.43164	549.38879	281.65714	1147.52295	547.67346	240.24139	1125.69434	455.19995	253.95076	1017.12946	451.28677	271.45306	1159.95300	276.89514	294.35229	1155.63318	215.26584	322.17130	1160.81445	275.03964	307.60654	1134.95984	73.57628	276.83200	1064.00696	75.65082	351.59320	1095.36169	28.40342	178.77592	1179.43213	29.34413	151.08937	1115.53345	37.73095	156.15846	1148.28674	36.03162	266.29001	1374.81824	1277.00549	304.65417	1378.04224	1337.56604	314.09195	1278.13989	1350.92859	310.49570	1217.76428	1363.00732	329.49863	1208.09875	1317.73328	234.14816	326.83432	1335.55847	170.51491	319.59546	1353.87781	181.90984	245.70996	1351.40063	284.10623	1612.17529	1338.48926	223.88863	1612.90344	1354.27783	223.13681	1686.98340	1351.47803	204.65828	580.86218	1278.87549	255.67030	563.73334	1330.04468	254.29868	644.64331	1361.91089	284.03311	640.40796	1322.26721	270.10910	704.58185	1368.02954	242.39372	939.68195	442.17957							291.08102	879.07483	70.72318	292.21927	1099.48340	74.61355	236.11697	890.38165	445.79173	247.09608	1071.41190	453.24336	234.49062	904.08807	936.58847	242.84934	1059.58591	943.12305 
46	0.225	109.76990	968.55939	1612.28040	127.96314	908.12201	1595.22766	146.09694	1039.15222	1583.94775	1040.98914	2031.55908	20.04711	162.73601	1103.11499	927.31073	322.87811	1016.01691	958.93048	319.73770	941.98547	960.75104	149.17671	866.15808	912.39185	314.63828	979.78418	971.00494	297.99619	964.62238	1401.28723	163.26886	981.53156	1329.62109	320.24207	974.12451	1117.61646	237.06148	1113.64905	1406.22571	216.74336	831.46350	1398.74792	237.31207	807.91986	606.56799	261.80792	819.16724	546.11420	211.13455	818.31030	545.89038	229.82614	841.07623	449.41272	256.56583	819.67828	233.59450	306.81250	815.63922	232.49835	280.01486	825.85132	173.53625	284.28799	914.72119	71.80307	297.85983	843.44818	69.62844	340.99197	881.72961	33.97580	143.88083	873.67926	39.18832	169.42378	796.98785	26.84243	144.83444	837.71875	37.24514	257.77545	1156.93701	608.03107	229.92081	1149.38733	549.39929	281.62756	1147.52063	547.64490	240.25105	1125.70679	455.14380	247.99892	1024.47729	449.27261	271.41885	1159.95483	276.90329	294.34726	1155.63379	215.27299	322.16507	1160.81812	275.03091	307.59927	1134.96509	73.57989	276.83032	1064.00195	75.63881	351.59192	1095.35706	28.40062	178.77429	1179.42834	29.34741	151.09743	1115.54102	37.71402	156.16016	1148.27942	36.01195	266.32993	1374.85095	1277.01599	304.67880	1378.05847	1337.57031	314.13638	1278.12085	1350.91785	310.52213	1217.78040	1362.92932	329.51132	1208.11304	1317.66272	234.19540	326.86053	1335.62720	170.51553	319.64496	1354.14307	182.06885	245.67070	1351.62390	284.15149	1612.17969	1338.53833	223.95786	1612.93018	1354.34424	223.21762	1686.97522	1351.61169	204.67726	580.86914	1278.95227	255.68588	563.75616	1330.12439	254.32007	644.66235	1361.96082	284.04187	640.43744	1322.31677	270.13483	704.58905	1368.05469	242.36768	939.67084	442.18539							291.07391	879.08469	70.71576	292.21480	1099.48352	74.60935	236.09691	890.37354	445.79906	244.12498	1075.09204	452.20821	234.45721	904.07178	936.57144	242.80706	1059.56595	943.12061 
47	0.230	109.71583	968.62146	1612.20569	127.92533	908.07391	1595.26147	146.05347	1039.16064	1583.93164	1041.02991	2031.56738	20.03725	162.72037	1103.11755	927.25446	322.99332	1015.74481	959.63257	319.71286	941.97980	960.73663	149.16010	866.12994	912.39557	314.70328	979.77344	970.83978	297.98331	964.64618	1401.27502	163.26552	981.53741	1329.62341	320.22165	974.10956	1117.60278	237.06529	1113.66748	1406.20251	216.75673	831.49146	1398.75146	237.29384	807.91278	606.56628	261.75974	819.16876	546.09045	211.08702	818.31335	545.89246	229.81874	841.05908	449.40094	256.55884	819.69354	233.60905	306.82050	815.62781	232.48158	280.02701	825.84595	173.52876	284.31012	914.72473	71.80945	297.86722	843.44971	69.62530	340.98587	881.68274	33.98371	143.86644	873.69489	39.16733	169.43597	796.98969	26.83724	144.83380	837.69745	37.28634	257.74466	1156.91528	608.02722	229.89636	1149.43506	549.35333	281.60898	1147.50806	547.65613	240.23245	1125.69861	455.12787	253.91461	1017.11145	451.26974	271.42374	1159.95313	276.90350	294.32657	1155.62720	215.25923	322.14795	1160.82666	275.04514	307.59842	1134.95679	73.58611	276.83237	1064.00671	75.63073	351.60272	1095.36157	28.39174	178.78879	1179.44604	29.30333	151.10133	1115.54480	37.71265	156.17239	1148.28284	36.01119	266.33490	1374.86609	1277.00317	304.71237	1378.07361	1337.52747	314.17422	1278.13708	1350.84485	310.54337	1217.80701	1362.86462	329.52466	1208.14783	1317.57410	234.23241	326.87979	1335.69141	170.65477	319.60040	1354.22571	182.01595	245.73706	1351.78479	284.20425	1612.17139	1338.59607	224.01277	1612.91943	1354.44458	223.29373	1686.99646	1351.70337	204.66811	580.89050	1278.99939	255.68697	563.77380	1330.15039	254.34171	644.68719	1361.99707	284.05890	640.45319	1322.33374	270.11542	704.64178	1368.05286	242.35115	939.66101	442.18951							291.08867	879.08722	70.71737	292.21539	1099.48175	74.60842	236.08495	890.36005	445.79523	247.07353	1071.40503	453.19881	234.43648	904.05487	936.56610	242.85684	1059.43118	943.44351 
48	0.235	109.68022	968.60205	1612.17480	127.88217	908.09235	1595.18750	146.01711	1039.17761	1583.90601	1040.96838	2031.52917	20.05383	162.67719	1103.11548	927.27692	322.95682	1015.73199	959.65295	319.69501	941.97070	960.71301	149.12015	866.11285	912.40045	314.69391	979.77173	970.80121	297.97873	964.67181	1401.27026	163.26334	981.56610	1329.60376	320.18265	974.09106	1117.60376	237.08066	1113.68469	1406.17102	216.74364	831.51355	1398.74353	237.24374	807.90094	606.57098	261.75104	819.15070	546.08997	211.05888	818.29523	545.88892	229.79671	841.05408	449.40277	256.56714	819.67920	233.59250	306.80624	815.62689	232.48495	280.00931	825.84747	173.50471	284.34473	914.70026	71.78324	297.86908	843.43671	69.63001	340.98486	881.70068	33.97683	143.86632	873.68341	39.19094	169.43669	796.98395	26.83273	144.84111	837.72498	37.22965	257.71100	1156.89587	608.04596	229.89067	1149.40198	549.33331	281.59619	1147.48267	547.65216	240.20357	1125.67920	455.14920	253.91458	1017.10901	451.24268	271.42795	1159.94702	276.89771	294.32596	1155.63257	215.26381	322.32117	1161.03430	275.19006	307.58081	1134.97522	73.59867	276.86560	1064.00574	75.61285	351.59503	1095.35693	28.41979	178.78110	1179.42200	29.32718	151.09956	1115.53760	37.73087	156.17387	1148.28369	35.99270	266.34940	1374.89124	1277.00073	304.72806	1378.08264	1337.55017	314.19781	1278.11951	1350.85376	310.56235	1217.83118	1362.80322	329.54074	1208.15918	1317.50220	234.26228	326.89609	1335.78101	170.65414	319.66089	1354.44507	182.12308	245.72205	1351.88000	284.26776	1612.16614	1338.63098	224.06105	1612.92969	1354.51208	223.36984	1686.98352	1351.84070	204.67358	580.89270	1279.03418	255.71790	563.80060	1330.21313	254.34547	644.71619	1362.01428	284.06900	640.48053	1322.37805	270.14767	704.63965	1368.10583	243.15614	938.96301	442.31442							291.10690	879.06848	70.70663	292.22321	1099.49048	74.60576	236.47643	890.00854	445.85860	247.05907	1071.39410	453.19594	234.40758	904.04178	936.55673	242.81700	1059.42374	943.46494 
49	0.240	109.63723	968.60852	1612.15100	127.84656	908.10242	1595.14563	145.85773	1039.77515	1583.88745	1040.98608	2031.54370	20.04236	162.64896	1103.10266	927.26306	322.93192	1015.69720	959.67554	319.66440	941.94379	960.72125	149.09511	866.09924	912.38043	314.72543	979.79718	970.68652	297.97324	964.67725	1401.26892	163.26408	981.58002	1329.60498	320.15881	974.10297	1117.59485	237.10921	1113.70020	1406.15112	216.75987	831.54565	1398.74951	237.21564	807.90344	606.56268	261.73349	819.13867	546.07990	211.09132	818.26532	545.87073	229.78206	841.03192	449.38348	256.56619	819.66870	233.58604	306.82596	815.60364	232.51994	280.00330	825.84375	173.52670	284.33884	914.69861	71.79021	297.86383	843.44775	69.63444	340.97803	881.65442	33.99224	143.86497	873.68427	39.17974	169.42369	796.99176	26.83364	144.84995	837.72601	37.23323	257.69958	1156.87280	608.06519	229.82045	1149.39905	549.38647	281.56287	1147.46521	547.66260	240.19681	1125.67493	455.13165	247.95906	1024.43481	449.24951	271.39783	1159.94153	276.90253	294.32269	1155.61792	215.25958	322.26514	1160.95837	275.16064	307.59802	1134.95679	73.61452	276.86234	1064.00366	75.61988	351.59894	1095.39307	28.36171	178.77989	1179.43933	29.33092	151.10416	1115.54773	37.71020	156.16039	1148.28259	36.00420	266.36075	1374.91284	1277.00623	304.77911	1378.10571	1337.52185	314.20361	1278.09412	1350.88623	310.59525	1217.85803	1362.71814	329.54492	1208.16553	1317.43652	234.30344	326.93863	1335.87732	170.65303	319.68176	1354.63416	182.17873	245.75461	1351.93652	284.29669	1612.17627	1338.67969	224.09506	1612.94934	1354.58362	223.46388	1686.99792	1351.92383	204.69014	580.90686	1279.07751	255.71136	563.82117	1330.26843	254.36578	644.73663	1362.07300	284.07910	640.50146	1322.42468	270.15561	704.66724	1368.15991	240.63432	940.94739	441.90530							291.10133	879.07318	70.71232	292.23018	1099.48022	74.61720	235.20819	890.98965	445.64439	244.07793	1075.05487	452.19058	234.37975	904.02151	936.55084	242.79044	1059.39993	943.46930 
